<svg class="svg-icon" style="width: 1em; height: 1em;vertical-align: middle;fill: currentColor;overflow: hidden;" viewBox="0 0 1024 1024" version="1.1" xmlns="http://www.w3.org/2000/svg"><path d="M768 981.333333H256c-72.533333 0-128-55.466667-128-128V170.666667c0-72.533333 55.466667-128 128-128h298.666667c12.8 0 21.333333 4.266667 29.866666 12.8l298.666667 298.666666c8.533333 8.533333 12.8 17.066667 12.8 29.866667v469.333333c0 72.533333-55.466667 128-128 128zM256 128c-25.6 0-42.666667 17.066667-42.666667 42.666667v682.666666c0 25.6 17.066667 42.666667 42.666667 42.666667h512c25.6 0 42.666667-17.066667 42.666667-42.666667V401.066667L537.6 128H256z"  /><path d="M853.333333 426.666667h-298.666666c-25.6 0-42.666667-17.066667-42.666667-42.666667V85.333333c0-25.6 17.066667-42.666667 42.666667-42.666666s42.666667 17.066667 42.666666 42.666666v256h256c25.6 0 42.666667 17.066667 42.666667 42.666667s-17.066667 42.666667-42.666667 42.666667z"  /></svg>