<?xml version="1.0" encoding="UTF-8" standalone="no"?>
<!-- Created with Inkscape (http://www.inkscape.org/) -->

<svg
   width="210mm"
   height="210mm"
   viewBox="0 0 210 210"
   version="1.1"
   id="svg1"
   xml:space="preserve"
   inkscape:export-filename="new.svg"
   inkscape:export-xdpi="96"
   inkscape:export-ydpi="96"
   xmlns:inkscape="http://www.inkscape.org/namespaces/inkscape"
   xmlns:sodipodi="http://sodipodi.sourceforge.net/DTD/sodipodi-0.dtd"
   xmlns="http://www.w3.org/2000/svg"
   xmlns:svg="http://www.w3.org/2000/svg"><sodipodi:namedview
     id="namedview1"
     pagecolor="#ffffff"
     bordercolor="#000000"
     borderopacity="0.25"
     inkscape:showpageshadow="2"
     inkscape:pageopacity="0.0"
     inkscape:pagecheckerboard="0"
     inkscape:deskcolor="#d1d1d1"
     inkscape:document-units="mm"><inkscape:page
       x="0"
       y="0"
       width="210"
       height="210"
       id="page2"
       margin="0"
       bleed="0" /></sodipodi:namedview><defs
     id="defs1" /><g
     inkscape:label="Layer 1"
     inkscape:groupmode="layer"
     id="layer1"><path
       style="fill:#000000;stroke-width:3.09987"
       d="M 64.898385,204.35012 C 49.663593,198.07474 36.111342,188.2408 25.910932,176.05952 12.698455,160.28127 5.7056951,145.78528 1.9069399,126.29925 0.01074584,116.57256 0.02520673,96.946725 1.9351487,87.854432 10.960187,44.893162 42.393658,13.234678 84.650368,4.5470947 95.009581,2.4173346 113.23177,2.2157686 123.80818,4.1139497 c 42.1805,7.5702563 76.13534,41.1948023 84.56305,83.7404823 1.51193,7.632781 1.51392,31.720078 0.003,39.368328 -6.19673,31.37264 -27.4133,59.48661 -55.60669,73.68414 -7.74289,3.89912 -14.10323,6.28192 -16.76952,6.28242 -4.13173,8.1e-4 -4.37017,-1.12036 -4.8664,-22.88244 -0.4855,-21.29236 -0.77673,-22.98759 -4.83601,-28.14745 l -1.75431,-2.22995 1.88484,-0.35912 c 12.33228,-2.34964 15.85727,-3.36671 21.78221,-6.2849 16.3024,-8.02931 23.49144,-21.5937 23.45638,-44.25781 -0.0186,-11.888037 -1.33196,-16.608799 -6.88509,-24.744121 -3.1703,-4.644518 -3.29204,-5.045093 -2.37627,-7.819855 1.44984,-4.393106 1.13777,-14.697923 -0.60352,-19.927179 -1.31196,-3.939973 -1.8022,-4.545219 -3.87325,-4.781643 -3.49712,-0.399217 -12.71623,2.831911 -19.96776,6.998342 l -6.36717,3.658288 -7.79164,-1.50101 c -10.18076,-1.96126 -27.15329,-1.946542 -37.231757,0.0323 L 79.272969,56.37517 70.164892,51.804885 C 61.219133,47.316052 53.156521,44.852191 50.61042,45.829224 c -3.009153,1.15472 -4.887284,17.864282 -2.787661,24.801551 0.960548,3.173698 0.89365,3.412152 -2.051228,7.311334 -5.233729,6.929733 -6.687153,11.7655 -7.082389,23.564131 -0.389642,11.63162 1.05258,19.43452 5.23291,28.3119 5.057272,10.73966 17.374857,19.36533 31.572646,22.10949 10.434491,2.0168 10.147551,1.82157 7.784256,5.29637 -1.098064,1.61448 -2.525753,4.75059 -3.17264,6.9691 -1.055596,3.62019 -1.503716,4.13253 -4.371611,4.9982 -1.7575,0.53051 -5.701435,0.99292 -8.764302,1.02761 -8.53202,0.0964 -12.146023,-2.25196 -19.209413,-12.48299 -4.276349,-6.19413 -13.331301,-10.75953 -18.246289,-9.19958 -2.39873,0.76132 -2.08461,1.94086 1.289701,4.84286 6.421559,5.52273 8.480745,8.07867 11.776099,14.61695 4.140386,8.21484 6.301012,10.60779 11.806302,13.07566 3.634738,1.62935 5.566838,1.88946 14.150721,1.9049 l 9.941233,0.0186 0.417224,9.432 c 0.699293,15.80866 -1.016866,17.2705 -13.997864,11.9235 z"
       id="path1" /></g></svg>
