<?xml version="1.0" encoding="UTF-8" standalone="no"?>
<svg
   class="svg-icon"
   style="width: 1em; height: 1em;vertical-align: middle;fill: currentColor;overflow: hidden;"
   viewBox="0 0 1024 1024"
   version="1.1"
   id="svg2"
   sodipodi:docname="layer.svg"
   inkscape:version="1.4.2 (f4327f4, 2025-05-13)"
   xmlns:inkscape="http://www.inkscape.org/namespaces/inkscape"
   xmlns:sodipodi="http://sodipodi.sourceforge.net/DTD/sodipodi-0.dtd"
   xmlns="http://www.w3.org/2000/svg"
   xmlns:svg="http://www.w3.org/2000/svg">
  <defs
     id="defs2" />
  <sodipodi:namedview
     id="namedview2"
     pagecolor="#505050"
     bordercolor="#eeeeee"
     borderopacity="1"
     inkscape:showpageshadow="0"
     inkscape:pageopacity="0"
     inkscape:pagecheckerboard="0"
     inkscape:deskcolor="#505050"
     inkscape:zoom="1.1396484"
     inkscape:cx="511.56127"
     inkscape:cy="512"
     inkscape:window-width="2560"
     inkscape:window-height="1369"
     inkscape:window-x="1912"
     inkscape:window-y="-8"
     inkscape:window-maximized="1"
     inkscape:current-layer="svg2" />
  <path
     d="m 543.31251,12.734318 a 51.053649,51.053649 0 0 0 -62.68225,0 L 21.606423,369.75285 a 51.104652,51.104652 0 0 0 0.05096,80.48218 L 480.68121,807.25355 a 50.696631,50.696631 0 0 0 62.63125,0 L 1002.3363,450.23503 a 51.002647,51.002647 0 0 0 0,-80.48218 z M 511.99688,702.39211 136.05636,409.99393 511.99688,117.59576 887.9374,409.99393 Z"
     fill=""
     id="path1"
     style="stroke-width:1.19538" />
  <path
     d="m 511.99688,1022.0257 c 11.06757,0 22.13515,-3.5702 31.31563,-10.7616 L 981.93527,670.15844 898.90296,605.48708 511.99688,906.4027 126.56988,606.60914 43.486561,671.22949 480.63026,1011.2641 a 50.951644,50.951644 0 0 0 31.36662,10.7616 z"
     fill=""
     id="path2"
     style="stroke-width:1.19538" />
</svg>
