<?xml version="1.0" encoding="UTF-8" standalone="no"?>
<!-- Generator: Adobe Illustrator 19.1.1, SVG Export Plug-In . SVG Version: 6.00 Build 0)  -->

<svg
   version="1.1"
   x="0px"
   y="0px"
   viewBox="0 2 48 48"
   enable-background="new 0 2 48 48"
   xml:space="preserve"
   id="svg10"
   sodipodi:docname="linux.svg"
   inkscape:version="1.4.2 (f4327f4, 2025-05-13)"
   xmlns:inkscape="http://www.inkscape.org/namespaces/inkscape"
   xmlns:sodipodi="http://sodipodi.sourceforge.net/DTD/sodipodi-0.dtd"
   xmlns="http://www.w3.org/2000/svg"
   xmlns:svg="http://www.w3.org/2000/svg"><defs
   id="defs10" /><sodipodi:namedview
   id="namedview10"
   pagecolor="#505050"
   bordercolor="#eeeeee"
   borderopacity="1"
   inkscape:showpageshadow="0"
   inkscape:pageopacity="0"
   inkscape:pagecheckerboard="0"
   inkscape:deskcolor="#505050"
   inkscape:zoom="24.3125"
   inkscape:cx="23.979434"
   inkscape:cy="24"
   inkscape:window-width="2560"
   inkscape:window-height="1369"
   inkscape:window-x="1912"
   inkscape:window-y="-8"
   inkscape:window-maximized="1"
   inkscape:current-layer="svg10" />
<polygon
   fill="#eceff1"
   points="18.6,23.5 16.1,28.4 15.6,32.5 17.4,38.3 21.5,40.6 27.7,40.6 33.5,36.2 36.1,29.3 30.1,22 28.4,17.9 20.1,18.2 20.2,20.5 "
   id="polygon1"
   transform="matrix(1.3171889,0,0,1.3171889,-7.7175666,-8.310032)" />
<path
   fill="#263238"
   d="M 37.462011,23.170782 C 35.35451,20.141248 33.642164,18.297183 32.720132,14.477335 31.7981,10.657488 32.98357,11.711239 32.193256,8.4182667 31.7981,6.7059211 31.139506,5.5204512 30.480911,4.5984189 29.690598,3.6763867 28.768565,3.1495111 28.24169,3.0177923 27.05622,2.3591979 24.290123,1.3054468 20.865432,3.1495111 c -3.55641,1.8440645 -3.161254,5.7956312 -2.502659,13.8304829 0,0.526876 -0.131719,1.185471 -0.395156,1.712346 -0.526876,1.18547 -1.448908,2.239221 -2.239221,3.161253 -0.922032,1.317189 -1.844065,2.634379 -2.502659,4.083286 -1.580627,3.029534 -3.029535,6.849382 -2.634379,8.298289 0.658595,-0.131718 8.956886,12.513295 8.956886,12.776733 0.526875,-0.131719 2.766096,-0.131719 4.741879,-0.131719 2.766097,-0.131719 4.346724,-0.263437 6.585944,0.263437 0,-0.395156 -0.131719,-0.790313 -0.131719,-1.185469 0,-0.790313 0.131719,-1.448908 0.263439,-2.37094 0.131719,-0.658595 0.263437,-1.317189 0.395156,-2.107503 -1.317188,1.185471 -3.688128,2.502659 -5.92735,2.897816 -1.975784,0.395156 -5.268756,-0.263437 -6.849382,-2.239221 0.131719,0 0.395157,0 0.526875,-0.131719 0.395158,-0.131719 0.790314,-0.263437 0.922033,-0.526876 0.395157,-0.658593 0.131718,-1.317188 -0.131719,-1.712345 -0.263438,-0.395156 -2.239222,-1.844064 -3.161254,-2.634378 -0.922032,-0.790313 -1.448908,-1.185469 -1.975782,-1.712345 0,0 -0.790314,-0.790314 -1.053752,-1.053751 -0.263438,-0.263438 -0.395156,-0.526876 -0.526875,-0.658595 -0.263439,-0.658594 -0.395157,-1.448908 -0.263439,-2.502658 0.13172,-1.448908 0.658595,-2.634379 1.31719,-3.951567 0.263437,-0.526876 0.922032,-1.580627 0.922032,-1.580627 0,0 -2.239222,5.532194 -1.053751,7.244539 0,0 0.131719,-1.712345 0.658595,-3.424691 0.395156,-1.18547 1.05375,-2.897816 1.844064,-3.819848 0.790313,-0.922032 2.766096,-4.346723 2.897816,-6.454225 0,-0.922033 0.131718,-1.844065 0.131718,-2.502659 -0.526876,-0.526876 8.693446,-1.844064 9.220322,-0.395157 0.131719,0.526875 1.975783,5.268756 3.029535,7.771414 0.526875,1.18547 1.185469,2.239222 1.580627,3.55641 0.395156,1.448908 0.658593,3.424692 0.658593,5.400475 0,0.395156 0,1.053751 -0.131718,1.712345 0.263438,0 5.400474,-5.532193 -0.658594,-10.142354 0,0 3.688128,1.712346 3.819847,5.137037 0.131719,2.766096 -1.053751,5.005317 -1.317188,5.400474 0.131718,0 2.766096,1.18547 2.897815,1.18547 0.526876,0 1.580626,-0.395156 1.580626,-0.395156 0.131719,-0.395157 0.526876,-1.448908 0.526876,-1.844065 0.922032,-3.029534 -1.317189,-7.903133 -3.424692,-10.932668 z"
   id="path1"
   style="stroke-width:1.31719" />
<g
   id="g2"
   transform="matrix(1.3171889,0,0,1.3171889,-7.7175666,-8.310032)">
	<ellipse
   fill="#eceff1"
   cx="21.6"
   cy="15.3"
   rx="1.3"
   ry="2"
   id="ellipse1" />
	<ellipse
   fill="#eceff1"
   cx="26.1"
   cy="15.2"
   rx="1.7"
   ry="2.3"
   id="ellipse2" />
</g>
<g
   id="g4"
   transform="matrix(1.3171889,0,0,1.3171889,-7.7175666,-8.310032)">
	
		<ellipse
   transform="matrix(-0.1254,-0.9921,0.9921,-0.1254,8.9754,38.9969)"
   fill="#212121"
   cx="21.700001"
   cy="15.5"
   rx="1.2"
   ry="0.69999999"
   id="ellipse3" />
	<ellipse
   fill="#212121"
   cx="26"
   cy="15.6"
   rx="1"
   ry="1.3"
   id="ellipse4" />
</g>
<g
   id="g6"
   transform="matrix(1.3171889,0,0,1.3171889,-7.7175666,-8.310032)">
	<path
   fill="#ffc107"
   d="m 39.3,37.6 c -0.4,-0.2 -1.1,-0.5 -1.7,-1.4 -0.3,-0.5 -0.2,-1.9 -0.7,-2.5 -0.3,-0.4 -0.7,-0.2 -0.8,-0.2 -0.9,0.2 -3,1.6 -4.4,0 -0.2,-0.2 -0.5,-0.5 -1,-0.5 -0.5,0 -0.7,0.2 -0.9,0.6 -0.2,0.4 -0.2,0.7 -0.2,1.7 0,0.8 0,1.7 -0.1,2.4 -0.2,1.7 -0.5,2.7 -0.5,3.7 0,1.1 0.3,1.8 0.7,2.1 0.3,0.3 0.8,0.5 1.9,0.5 1.1,0 1.8,-0.4 2.5,-1.1 0.5,-0.5 0.9,-0.7 2.3,-1.7 1.1,-0.7 2.8,-1.6 3.1,-1.9 0.2,-0.2 0.5,-0.3 0.5,-0.9 0,-0.5 -0.4,-0.7 -0.7,-0.8 z"
   id="path4" />
	<path
   fill="#ffc107"
   d="m 19.2,37.9 c -1,-1.6 -1.1,-1.9 -1.8,-2.9 -0.6,-1 -1.9,-2.9 -2.7,-2.9 -0.6,0 -0.9,0.3 -1.3,0.7 -0.4,0.4 -0.8,1.3 -1.5,1.8 -0.6,0.5 -2.3,0.4 -2.7,1 -0.4,0.6 0.4,1.5 0.4,3 0,0.6 -0.5,1 -0.6,1.4 -0.1,0.5 -0.2,0.8 0,1.2 0.4,0.6 0.9,0.8 4.3,1.5 1.8,0.4 3.5,1.4 4.6,1.5 1.1,0.1 3,0 3,-2.7 0.1,-1.6 -0.8,-2 -1.7,-3.6 z"
   id="path5" />
	<path
   fill="#ffc107"
   d="M 21.1,19.8 C 20.5,19.4 20,19 20,18.4 c 0,-0.6 0.4,-0.8 1,-1.3 0.1,-0.1 1.2,-1.1 2.3,-1.1 1.1,0 2.4,0.7 2.9,0.9 0.9,0.2 1.8,0.4 1.7,1.1 -0.1,1 -0.2,1.2 -1.2,1.7 -0.7,0.2 -2,1.3 -2.9,1.3 -0.4,0 -1,0 -1.4,-0.1 -0.3,-0.1 -0.8,-0.6 -1.3,-1.1 z"
   id="path6" />
</g>
<g
   id="g9"
   transform="matrix(1.3171889,0,0,1.3171889,-7.7175666,-8.310032)">
	<path
   fill="#634703"
   d="m 20.9,19 c 0.2,0.2 0.5,0.4 0.8,0.5 0.2,0.1 0.5,0.2 0.5,0.2 0.4,0 0.7,0 0.9,0 0.5,0 1.2,-0.2 1.9,-0.6 0.7,-0.3 0.8,-0.5 1.3,-0.7 0.5,-0.3 1,-0.6 0.8,-0.7 -0.2,-0.1 -0.4,0 -1.1,0.4 -0.6,0.4 -1.1,0.6 -1.7,0.9 -0.3,0.1 -0.7,0.3 -1,0.3 -0.3,0 -0.6,0 -0.9,0 -0.3,0 -0.5,-0.1 -0.8,-0.2 -0.2,-0.1 -0.3,-0.2 -0.4,-0.2 -0.2,-0.1 -0.6,-0.5 -0.8,-0.6 0,0 -0.2,0 -0.1,0.1 0.3,0.3 0.4,0.4 0.6,0.6 z"
   id="path7" />
	<path
   fill="#634703"
   d="m 23.9,16.8 c 0.1,0.2 0.3,0.2 0.4,0.3 0.1,0.1 0.2,0.1 0.2,0.1 0.1,-0.1 0,-0.3 -0.1,-0.3 0,-0.2 -0.5,-0.2 -0.5,-0.1 z"
   id="path8" />
	<path
   fill="#634703"
   d="m 22.3,17 c 0,0.1 0.2,0.2 0.2,0.1 0.1,-0.1 0.2,-0.2 0.3,-0.2 0.2,-0.1 0.1,-0.2 -0.2,-0.2 -0.2,0.1 -0.2,0.2 -0.3,0.3 z"
   id="path9" />
</g>
<path
   fill="#455a64"
   d="m 34.432478,37.396422 c 0,0.131718 0,0.263438 0,0.395157 0.263437,0.526875 0.922032,0.658595 1.448908,0.658595 0.790313,0 1.580625,-0.526876 1.975783,-1.053752 0,-0.131719 0.131718,-0.263438 0.263437,-0.395156 0.263438,-0.395158 0.395157,-0.658595 0.526876,-0.790314 0,0 -0.131719,-0.131719 -0.131719,-0.263437 -0.131719,-0.263439 -0.526876,-0.526876 -1.053752,-0.658595 -0.395156,-0.131719 -1.05375,-0.263438 -1.317188,-0.263438 -1.185469,-0.131719 -1.844064,0.263438 -2.239221,0.658594 0,0 0.131719,0 0.131719,0.131719 0.263438,0.263438 0.395157,0.526876 0.395157,0.922033 0.131718,0.263438 0,0.395156 0,0.658594 z"
   id="path10"
   style="stroke-width:1.31719" />
</svg>
